<?xml version="1.0" encoding="UTF-8" standalone="no"?>
<!-- Created with Inkscape (http://www.inkscape.org/) -->

<svg
   width="206.73201mm"
   height="145.95537mm"
   viewBox="0 0 206.73201 145.95537"
   version="1.1"
   id="svg1"
   inkscape:export-filename="ビットマップ.svg"
   inkscape:export-xdpi="92.743843"
   inkscape:export-ydpi="92.743843"
   xmlns:inkscape="http://www.inkscape.org/namespaces/inkscape"
   xmlns:sodipodi="http://sodipodi.sourceforge.net/DTD/sodipodi-0.dtd"
   xmlns="http://www.w3.org/2000/svg"
   xmlns:svg="http://www.w3.org/2000/svg">
  <sodipodi:namedview
     id="namedview1"
     pagecolor="#ffffff"
     bordercolor="#000000"
     borderopacity="0.25"
     inkscape:showpageshadow="2"
     inkscape:pageopacity="0.0"
     inkscape:pagecheckerboard="0"
     inkscape:deskcolor="#d1d1d1"
     inkscape:document-units="mm">
    <inkscape:page
       x="-1.4435387e-15"
       y="0"
       width="206.73203"
       height="145.95537"
       id="page2"
       margin="0"
       bleed="0" />
  </sodipodi:namedview>
  <defs
     id="defs1" />
  <g
     inkscape:label="Layer 1"
     inkscape:groupmode="layer"
     id="layer1"
     style="display:none;opacity:0"
     transform="translate(-1.0535775,-53.889705)">
    <rect
       style="fill:#000000;fill-opacity:1;stroke:#000000;stroke-width:0.264999;stroke-dasharray:none;stroke-opacity:1"
       id="rect9"
       width="5.1524162"
       height="8.8327131"
       x="18.769516"
       y="93.479553" />
    <rect
       style="fill:#550000;fill-opacity:1;stroke:#000000;stroke-width:0.264999;stroke-dasharray:none;stroke-opacity:1"
       id="rect10"
       width="26.130112"
       height="11.040892"
       x="42.323421"
       y="130.65056" />
    <rect
       style="fill:#450000;fill-opacity:1;fill-rule:nonzero;stroke:#000000;stroke-width:0.229805;stroke-dasharray:none;stroke-opacity:1"
       id="rect11"
       width="12.447165"
       height="52.291164"
       x="14.246963"
       y="91.458031"
       transform="matrix(0.99963063,-0.02717713,0.01532958,0.9998825,0,0)" />
  </g>
  <g
     inkscape:groupmode="layer"
     id="layer2"
     inkscape:label="Layer 2"
     transform="translate(-1.0535775,-53.889705)">
    <path
       style="display:none;fill:#ffffff;fill-opacity:1;fill-rule:nonzero;stroke:#000000;stroke-width:0.224481;stroke-dasharray:none;stroke-opacity:1"
       id="path20"
       sodipodi:type="arc"
       sodipodi:cx="101.35419"
       sodipodi:cy="113.16911"
       sodipodi:rx="84.632805"
       sodipodi:ry="85.590477"
       sodipodi:start="1.3514598"
       sodipodi:end="1.3305394"
       sodipodi:arc-type="arc"
       d="M 119.76877,196.70902 A 84.632805,85.590477 0 0 1 18.846452,132.22873 84.632805,85.590477 0 0 1 82.076561,29.828577 84.632805,85.590477 0 0 1 183.66027,93.237738 84.632805,85.590477 0 0 1 121.49275,196.30116"
       sodipodi:open="true"
       inkscape:export-filename="path20.svg"
       inkscape:export-xdpi="92.743843"
       inkscape:export-ydpi="92.743843" />
    <rect
       style="fill:#630000;fill-opacity:1;fill-rule:nonzero;stroke:#000000;stroke-width:0.343197;stroke-dasharray:none;stroke-opacity:1"
       id="rect12"
       width="21.635557"
       height="54.758236"
       x="7.7677226"
       y="87.998207" />
  </g>
  <rect
     style="fill:#630000;fill-opacity:1;fill-rule:nonzero;stroke:#000000;stroke-width:0.335505;stroke-dasharray:none;stroke-opacity:1"
     id="rect13"
     width="20.907188"
     height="83.656258"
     x="38.360855"
     y="54.162273" />
  <path
     style="fill:#000000;fill-opacity:1;fill-rule:nonzero;stroke:#000000;stroke-width:0.503216;stroke-dasharray:none;stroke-opacity:1"
     id="path12"
     sodipodi:type="arc"
     sodipodi:cx="5.9756184"
     sodipodi:cy="-22.301094"
     sodipodi:rx="16.073896"
     sodipodi:ry="16.073896"
     sodipodi:start="2.130516"
     sodipodi:end="1.0471976"
     sodipodi:arc-type="slice"
     d="M -2.5587955,-8.6800102 A 16.073896,16.073896 0 0 1 -9.4321866,-26.880362 16.073896,16.073896 0 0 1 6.2659048,-38.372369 16.073896,16.073896 0 0 1 21.538744,-26.320951 16.073896,16.073896 0 0 1 14.012566,-8.380691 L 5.9756184,-22.301094 Z"
     transform="rotate(120)" />
  <rect
     style="fill:#630000;fill-opacity:1;fill-rule:nonzero;stroke:#000000;stroke-width:0.273685;stroke-dasharray:none;stroke-opacity:1"
     id="rect13-1"
     width="19.234524"
     height="60.508434"
     x="142.32339"
     y="36.176701" />
  <path
     style="fill:#004600;fill-opacity:1;fill-rule:nonzero;stroke:#000000;stroke-width:0.358983;stroke-dasharray:none;stroke-opacity:1"
     id="path14-8"
     sodipodi:type="arc"
     sodipodi:cx="100.48131"
     sodipodi:cy="55.901295"
     sodipodi:rx="21.328133"
     sodipodi:ry="21.328133"
     sodipodi:start="1.3089969"
     sodipodi:end="1.2678391"
     sodipodi:arc-type="arc"
     d="M 106.00144,76.502689 A 21.328133,21.328133 0 0 1 79.937803,61.633103 21.328133,21.328133 0 0 1 94.538425,35.417853 21.328133,21.328133 0 0 1 120.90252,49.747967 21.328133,21.328133 0 0 1 106.84443,76.25811"
     sodipodi:open="true" />
  <path
     style="fill:#630000;fill-opacity:1;fill-rule:nonzero;stroke:#000000;stroke-width:0.280973;stroke-dasharray:none;stroke-opacity:1"
     id="path13"
     sodipodi:type="arc"
     sodipodi:cx="60.039349"
     sodipodi:cy="57.623302"
     sodipodi:rx="22.512358"
     sodipodi:ry="22.512358"
     sodipodi:start="1.3514598"
     sodipodi:end="1.3305394"
     sodipodi:arc-type="arc"
     d="M 64.937635,79.59631 A 22.512358,22.512358 0 0 1 38.09226,62.636442 22.512358,22.512358 0 0 1 54.911493,35.702733 22.512358,22.512358 0 0 1 81.932799,52.380871 22.512358,22.512358 0 0 1 65.396213,79.489035"
     sodipodi:open="true" />
  <path
     style="fill:#000000;fill-opacity:1;fill-rule:nonzero;stroke:#000000;stroke-width:0.248105;stroke-dasharray:none;stroke-opacity:1"
     id="path14"
     sodipodi:type="arc"
     sodipodi:cx="59.59074"
     sodipodi:cy="57.446781"
     sodipodi:rx="14.832881"
     sodipodi:ry="14.648863"
     sodipodi:start="1.3514598"
     sodipodi:end="1.3305394"
     sodipodi:open="true"
     sodipodi:arc-type="arc"
     d="M 62.818109,71.744687 A 14.832881,14.648863 0 0 1 45.130302,60.708847 14.832881,14.648863 0 0 1 56.212113,43.182997 14.832881,14.648863 0 0 1 74.015837,54.035514 14.832881,14.648863 0 0 1 63.120257,71.674883" />
  <path
     style="fill:#00467f;fill-opacity:1;fill-rule:nonzero;stroke:#000000;stroke-width:0.352842;stroke-dasharray:none;stroke-opacity:1"
     id="path14-8-5"
     sodipodi:type="arc"
     sodipodi:cx="138.66708"
     sodipodi:cy="56.021221"
     sodipodi:rx="20.963327"
     sodipodi:ry="20.963327"
     sodipodi:start="1.3514598"
     sodipodi:end="1.3305394"
     sodipodi:open="true"
     sodipodi:arc-type="arc"
     d="m 143.22833,76.48231 a 20.963327,20.963327 0 0 1 -24.9982,-15.792894 20.963327,20.963327 0 0 1 15.66194,-25.080453 20.963327,20.963327 0 0 1 25.16202,15.530548 20.963327,20.963327 0 0 1 -15.39874,25.242905" />
  <path
     sodipodi:type="spiral"
     style="fill:#630000;fill-opacity:1;fill-rule:evenodd;stroke:#000000;stroke-width:0.264583"
     id="path15"
     sodipodi:cx="155.36108"
     sodipodi:cy="175.13905"
     sodipodi:expansion="1"
     sodipodi:revolution="3"
     sodipodi:radius="19.995907"
     sodipodi:argument="-21.316408"
     sodipodi:t0="0"
     d="m 155.36108,175.13905 c -0.78287,-0.62629 0.458,-1.36428 1.04095,-1.30118 1.57976,0.17101 2.04702,2.11823 1.56142,3.38307 -0.86863,2.26251 -3.71376,2.83238 -5.7252,1.82166 -2.95186,-1.48327 -3.63804,-5.32987 -2.08189,-8.06733 2.0741,-3.64859 6.95313,-4.45218 10.40945,-2.34213 4.34942,2.65528 5.27067,8.57979 2.60237,12.75158 -3.23167,5.0526 -10.20833,6.09167 -15.09371,2.86261 -5.75725,-3.80534 -6.91424,-11.83805 -3.12284,-17.43583 4.37731,-6.46286 13.46856,-7.73787 19.77796,-3.38309 7.16913,4.94818 8.56222,15.09964 3.64332,22.12009 -5.51827,7.87589 -16.73111,9.38712 -24.46222,3.90356 -8.58299,-6.08779 -10.21241,-18.36288 -4.16379,-26.80434"
     transform="matrix(1.5674458,0,0,1.6637971,-108.73689,-183.4979)" />
  <rect
     style="fill:#630000;fill-opacity:1;fill-rule:nonzero;stroke:#000000;stroke-width:0.386417;stroke-dasharray:none;stroke-opacity:1"
     id="rect17"
     width="19.200153"
     height="83.555267"
     x="183.75807"
     y="39.148579" />
  <path
     style="fill:#630000;fill-opacity:1;fill-rule:nonzero;stroke:#000000;stroke-width:0.622515;stroke-dasharray:none;stroke-opacity:1"
     id="path18"
     sodipodi:type="arc"
     sodipodi:cx="183.03746"
     sodipodi:cy="77.611305"
     sodipodi:rx="13.143525"
     sodipodi:ry="13.143525"
     sodipodi:start="1.3514598"
     sodipodi:end="1.3305394"
     sodipodi:open="true"
     sodipodi:arc-type="arc"
     d="m 185.89726,90.439938 a 13.143525,13.143525 0 0 1 -15.6733,-9.901781 13.143525,13.143525 0 0 1 9.81967,-15.724869 13.143525,13.143525 0 0 1 15.77601,9.737297 13.143525,13.143525 0 0 1 -9.65465,15.826722" />
  <rect
     style="fill:#1a1a1a;fill-opacity:1;fill-rule:nonzero;stroke:#000000;stroke-width:0.348073;stroke-dasharray:none;stroke-opacity:1"
     id="rect16"
     width="14.638116"
     height="35.24778"
     x="163.86528"
     y="39.263355" />
  <path
     style="fill:#ffffff;fill-opacity:0.403704;fill-rule:nonzero;stroke:#000000;stroke-width:0.17781;stroke-dasharray:none;stroke-opacity:1"
     id="path14-8-5-7"
     sodipodi:type="arc"
     sodipodi:cx="100.08516"
     sodipodi:cy="56.169575"
     sodipodi:rx="10.564168"
     sodipodi:ry="10.564168"
     sodipodi:start="1.3514598"
     sodipodi:end="1.3305394"
     sodipodi:open="true"
     sodipodi:arc-type="arc"
     d="m 102.38373,66.480647 a 10.564168,10.564168 0 0 1 -12.59748,-7.958602 10.564168,10.564168 0 0 1 7.892607,-12.638935 10.564168,10.564168 0 0 1 12.680043,7.826397 10.564168,10.564168 0 0 1 -7.75997,12.7208" />
  <path
     style="fill:#00467f;fill-opacity:1;fill-rule:nonzero;stroke:#000000;stroke-width:0.683079;stroke-dasharray:none;stroke-opacity:1"
     id="path19"
     sodipodi:type="arc"
     sodipodi:cx="190.26219"
     sodipodi:cy="129.48555"
     sodipodi:rx="16.127161"
     sodipodi:ry="16.127161"
     sodipodi:start="1.3514598"
     sodipodi:end="0.26179939"
     sodipodi:arc-type="slice"
     d="m 193.77117,145.22634 a 16.127161,16.127161 0 0 1 -17.72519,-8.12602 16.127161,16.127161 0 0 1 3.05725,-19.25792 16.127161,16.127161 0 0 1 19.37035,-2.237 16.127161,16.127161 0 0 1 7.36625,18.05417 l -15.57764,-4.17402 z"
     inkscape:export-filename="icon.svg"
     inkscape:export-xdpi="92.743843"
     inkscape:export-ydpi="92.743843" />
</svg>
